                         Big Trouble in Little China (1986)
-----------------------------------------------------------------------------------

Jack Burton, trucker and king of the road meets his friend Wang as Wang's fiance is kidnapped as a potential bride for a cursed Chinese magician. They also steal Jack's Truck. Martial arts, gunfire, and magic ensue as Jack and Wang try and rescue her.

Enjoy.


Format                           : AVI
Format/Info                      : Audio Video Interleave
File size                        : 701 MiB
Duration                         : 1h 39mn
Overall bit rate                 : 982 Kbps
Writing application              : VirtualDubMod 1.5.4.1 
                              
Format                           : MPEG-4 Visual
Format profile                   : AdvancedSimple@L5
Format settings, BVOP            : Yes
Format settings, QPel            : No
Format settings, GMC             : No warppoints
Format settings, Matrix          : Custom
Codec ID                         : XVID
Codec ID/Hint                    : XviD
Duration                         : 1h 39mn
Bit rate                         : 863 Kbps
Width                            : 608 pixels
Height                           : 272 pixels
Display aspect ratio             : 2.25
Frame rate                       : 23.976 fps
Resolution                       : 24 bits
Colorimetry                      : 4:2:0
Scan type                        : Progressive
Bits/(Pixel*Frame)               : 0.218
Stream size                      : 616 MiB (88%)
Writing library                  : XviD 1.2.0.dev47 (UTC 2006-11-01)
                             
Format                           : MPEG Audio
Format version                   : Version 1
Format profile                   : Layer 3
Codec ID                         : 55
Codec ID/Hint                    : MP3
Duration                         : 1h 39mn
Bit rate mode                    : Constant
Bit rate                         : 112 Kbps
Channel(s)                       : 2 channels
Sampling rate                    : 44.1 KHz
Resolution                       : 16 bits
Stream size                      : 80.0 MiB (11%)
Alignment                        : Split accross interleaves
Interleave, duration             : 83 ms (2.00 video frames)
Interleave, preload duration     : 500 ms
Writing library                  : LAME3.97 